<svg width="52" height="52" viewBox="0 0 52 52" fill="none" xmlns="http://www.w3.org/2000/svg">
<path opacity="0.5" d="M18.0834 21.4168C18.0834 20.5328 18.4346 19.6849 19.0597 19.0598C19.6848 18.4347 20.5327 18.0835 21.4167 18.0835C22.3008 18.0835 23.1486 18.4347 23.7737 19.0598C24.3989 19.6849 24.75 20.5328 24.75 21.4168C24.75 22.3009 24.3989 23.1487 23.7737 23.7739C23.1486 24.399 22.3008 24.7502 21.4167 24.7502C20.5327 24.7502 19.6848 24.399 19.0597 23.7739C18.4346 23.1487 18.0834 22.3009 18.0834 21.4168ZM27.25 30.5835C27.25 29.6994 27.6012 28.8516 28.2264 28.2265C28.8515 27.6014 29.6993 27.2502 30.5834 27.2502C31.4674 27.2502 32.3153 27.6014 32.9404 28.2265C33.5655 28.8516 33.9167 29.6994 33.9167 30.5835C33.9167 31.4676 33.5655 32.3154 32.9404 32.9405C32.3153 33.5656 31.4674 33.9168 30.5834 33.9168C29.6993 33.9168 28.8515 33.5656 28.2264 32.9405C27.6012 32.3154 27.25 31.4676 27.25 30.5835Z" stroke="#29343D" stroke-width="1.25"/>
<path d="M33.9167 21.4168C33.9167 20.5328 33.5655 19.6849 32.9404 19.0598C32.3153 18.4347 31.4674 18.0835 30.5834 18.0835C29.6993 18.0835 28.8515 18.4347 28.2264 19.0598C27.6012 19.6849 27.25 20.5328 27.25 21.4168C27.25 22.3009 27.6012 23.1487 28.2264 23.7739C28.8515 24.399 29.6993 24.7502 30.5834 24.7502C31.4674 24.7502 32.3153 24.399 32.9404 23.7739C33.5655 23.1487 33.9167 22.3009 33.9167 21.4168ZM24.75 30.5835C24.75 29.6994 24.3989 28.8516 23.7737 28.2265C23.1486 27.6014 22.3008 27.2502 21.4167 27.2502C20.5327 27.2502 19.6848 27.6014 19.0597 28.2265C18.4346 28.8516 18.0834 29.6994 18.0834 30.5835C18.0834 31.4676 18.4346 32.3154 19.0597 32.9405C19.6848 33.5656 20.5327 33.9168 21.4167 33.9168C22.3008 33.9168 23.1486 33.5656 23.7737 32.9405C24.3989 32.3154 24.75 31.4676 24.75 30.5835Z" stroke="#29343D" stroke-width="1.25"/>
</svg>
